<?xml version="1.0" encoding="UTF-8" standalone="no"?>
<!DOCTYPE svg PUBLIC "-//W3C//DTD SVG 1.1//EN"
 "http://www.w3.org/Graphics/SVG/1.1/DTD/svg11.dtd">
<!-- Generated by graphviz version 2.43.0 (0)
 -->
<!-- Title: G Pages: 1 -->
<svg width="277pt" height="332pt"
 viewBox="0.00 0.00 277.39 332.00" xmlns="http://www.w3.org/2000/svg" xmlns:xlink="http://www.w3.org/1999/xlink">
<g id="graph0" class="graph" transform="scale(1 1) rotate(0) translate(4 328)">
<title>G</title>
<polygon fill="white" stroke="transparent" points="-4,4 -4,-328 273.39,-328 273.39,4 -4,4"/>
<!-- n5 -->
<g id="node1" class="node">
<title>n5</title>
<ellipse fill="none" stroke="green" cx="152.9" cy="-234" rx="81.49" ry="18"/>
<text text-anchor="middle" x="152.9" y="-230.3" font-family="Times,serif" font-size="14.00">.stamp.verilate</text>
</g>
<!-- n4 -->
<g id="node3" class="node">
<title>n4</title>
<ellipse fill="none" stroke="green" cx="152.9" cy="-162" rx="65.79" ry="18"/>
<text text-anchor="middle" x="152.9" y="-158.3" font-family="Times,serif" font-size="14.00">obj_dir/Valu</text>
</g>
<!-- n5&#45;&gt;n4 -->
<g id="edge3" class="edge">
<title>n5&#45;&gt;n4</title>
<path fill="none" stroke="black" d="M152.9,-215.7C152.9,-207.98 152.9,-198.71 152.9,-190.11"/>
<polygon fill="black" stroke="black" points="156.4,-190.1 152.9,-180.1 149.4,-190.1 156.4,-190.1"/>
</g>
<!-- n6 -->
<g id="node2" class="node">
<title>n6</title>
<ellipse fill="none" stroke="green" cx="95.9" cy="-306" rx="38.19" ry="18"/>
<text text-anchor="middle" x="95.9" y="-302.3" font-family="Times,serif" font-size="14.00">alu.sv</text>
</g>
<!-- n6&#45;&gt;n5 -->
<g id="edge1" class="edge">
<title>n6&#45;&gt;n5</title>
<path fill="none" stroke="black" d="M109.12,-288.76C116.04,-280.27 124.66,-269.68 132.42,-260.15"/>
<polygon fill="black" stroke="black" points="135.35,-262.09 138.95,-252.12 129.93,-257.67 135.35,-262.09"/>
</g>
<!-- n3 -->
<g id="node7" class="node">
<title>n3</title>
<ellipse fill="none" stroke="green" cx="152.9" cy="-90" rx="75.29" ry="18"/>
<text text-anchor="middle" x="152.9" y="-86.3" font-family="Times,serif" font-size="14.00">waveform.vcd</text>
</g>
<!-- n4&#45;&gt;n3 -->
<g id="edge6" class="edge">
<title>n4&#45;&gt;n3</title>
<path fill="none" stroke="black" d="M152.9,-143.7C152.9,-135.98 152.9,-126.71 152.9,-118.11"/>
<polygon fill="black" stroke="black" points="156.4,-118.1 152.9,-108.1 149.4,-118.1 156.4,-118.1"/>
</g>
<!-- n2 -->
<g id="node4" class="node">
<title>n2</title>
<ellipse fill="none" stroke="red" cx="90.9" cy="-18" rx="27.1" ry="18"/>
<text text-anchor="middle" x="90.9" y="-14.3" font-family="Times,serif" font-size="14.00">sim</text>
</g>
<!-- n7 -->
<g id="node5" class="node">
<title>n7</title>
<ellipse fill="none" stroke="green" cx="210.9" cy="-306" rx="58.49" ry="18"/>
<text text-anchor="middle" x="210.9" y="-302.3" font-family="Times,serif" font-size="14.00">tb_alu.cpp</text>
</g>
<!-- n7&#45;&gt;n5 -->
<g id="edge2" class="edge">
<title>n7&#45;&gt;n5</title>
<path fill="none" stroke="black" d="M197.15,-288.41C190.1,-279.91 181.38,-269.37 173.54,-259.91"/>
<polygon fill="black" stroke="black" points="176.02,-257.42 166.95,-251.96 170.63,-261.89 176.02,-257.42"/>
</g>
<!-- n8 -->
<g id="node6" class="node">
<title>n8</title>
<ellipse fill="none" stroke="red" cx="29.9" cy="-90" rx="29.8" ry="18"/>
<text text-anchor="middle" x="29.9" y="-86.3" font-family="Times,serif" font-size="14.00">tree</text>
</g>
<!-- n8&#45;&gt;n2 -->
<g id="edge4" class="edge">
<title>n8&#45;&gt;n2</title>
<path fill="none" stroke="black" d="M43.13,-73.81C51.29,-64.45 61.89,-52.28 71.04,-41.79"/>
<polygon fill="black" stroke="black" points="73.76,-44 77.69,-34.16 68.48,-39.4 73.76,-44"/>
</g>
<!-- n3&#45;&gt;n2 -->
<g id="edge5" class="edge">
<title>n3&#45;&gt;n2</title>
<path fill="none" stroke="black" d="M137.89,-72.05C129.74,-62.86 119.57,-51.38 110.78,-41.45"/>
<polygon fill="black" stroke="black" points="113.33,-39.05 104.08,-33.89 108.09,-43.69 113.33,-39.05"/>
</g>
</g>
</svg>
